<mxfile host="app.diagrams.net" modified="2024-03-26T22:59:30.880Z" agent="Mozilla/5.0 (Macintosh; Intel Mac OS X 10_15_7) AppleWebKit/605.1.15 (KHTML, like Gecko) Version/17.3.1 Safari/605.1.15" etag="Y28MifbIPCu2HnESdQ0k" version="24.2.0" type="github">
  <diagram name="Page-1" id="dD4qSxTyb3Q1aRbLcb0a">
    <mxGraphModel dx="705" dy="482" grid="1" gridSize="5" guides="1" tooltips="1" connect="0" arrows="0" fold="1" page="1" pageScale="1" pageWidth="850" pageHeight="1100" background="none" math="0" shadow="0">
      <root>
        <mxCell id="0" />
        <mxCell id="1" parent="0" />
        <mxCell id="W99N5dghaN8DPbElHies-5" value="" style="rounded=0;whiteSpace=wrap;html=1;fillColor=none;" parent="1" vertex="1">
          <mxGeometry x="120" y="257" width="120" height="80" as="geometry" />
        </mxCell>
        <mxCell id="W99N5dghaN8DPbElHies-6" value="" style="rounded=0;whiteSpace=wrap;html=1;fillColor=none;fontColor=#ffffff;strokeColor=#6F0000;" parent="1" vertex="1">
          <mxGeometry x="180" y="267" width="50" height="40" as="geometry" />
        </mxCell>
        <mxCell id="W99N5dghaN8DPbElHies-8" value="" style="rounded=0;whiteSpace=wrap;html=1;fillColor=none;" parent="1" vertex="1">
          <mxGeometry x="322" y="257" width="120" height="80" as="geometry" />
        </mxCell>
        <mxCell id="W99N5dghaN8DPbElHies-9" value="" style="rounded=0;whiteSpace=wrap;html=1;strokeColor=#3399FF;" parent="1" vertex="1">
          <mxGeometry x="380" y="262" width="50" height="50" as="geometry" />
        </mxCell>
        <mxCell id="W99N5dghaN8DPbElHies-10" value="" style="rounded=0;whiteSpace=wrap;html=1;fillColor=none;" parent="1" vertex="1">
          <mxGeometry x="320" y="377" width="120" height="80" as="geometry" />
        </mxCell>
        <mxCell id="W99N5dghaN8DPbElHies-11" value="" style="rounded=0;whiteSpace=wrap;html=1;fillColor=none;fontColor=#ffffff;strokeColor=#3399FF;" parent="1" vertex="1">
          <mxGeometry x="380" y="377" width="50" height="50" as="geometry" />
        </mxCell>
        <mxCell id="W99N5dghaN8DPbElHies-18" value="Case 1a" style="text;html=1;strokeColor=none;fillColor=none;align=center;verticalAlign=middle;whiteSpace=wrap;rounded=0;" parent="1" vertex="1">
          <mxGeometry x="30" y="180" width="60" height="30" as="geometry" />
        </mxCell>
        <mxCell id="W99N5dghaN8DPbElHies-19" value="Case 1b" style="text;html=1;strokeColor=none;fillColor=none;align=center;verticalAlign=middle;whiteSpace=wrap;rounded=0;" parent="1" vertex="1">
          <mxGeometry x="30" y="647.5" width="60" height="30" as="geometry" />
        </mxCell>
        <mxCell id="W99N5dghaN8DPbElHies-20" value="" style="rounded=0;whiteSpace=wrap;html=1;fillColor=none;" parent="1" vertex="1">
          <mxGeometry x="120" y="160" width="120" height="80" as="geometry" />
        </mxCell>
        <mxCell id="W99N5dghaN8DPbElHies-21" value="" style="rounded=0;whiteSpace=wrap;html=1;fillColor=none;fontColor=#ffffff;strokeColor=#6F0000;" parent="1" vertex="1">
          <mxGeometry x="150" y="180" width="80" height="40" as="geometry" />
        </mxCell>
        <mxCell id="W99N5dghaN8DPbElHies-22" value="" style="rounded=0;whiteSpace=wrap;html=1;fillColor=none;" parent="1" vertex="1">
          <mxGeometry x="320" y="160" width="120" height="80" as="geometry" />
        </mxCell>
        <mxCell id="W99N5dghaN8DPbElHies-23" value="" style="rounded=0;whiteSpace=wrap;html=1;fillColor=none;fontColor=#ffffff;strokeColor=#3399FF;" parent="1" vertex="1">
          <mxGeometry x="350" y="160" width="80" height="80" as="geometry" />
        </mxCell>
        <mxCell id="W99N5dghaN8DPbElHies-28" value="Square, nothing left to do" style="text;html=1;strokeColor=none;fillColor=none;align=center;verticalAlign=middle;whiteSpace=wrap;rounded=0;" parent="1" vertex="1">
          <mxGeometry x="470" y="160" width="60" height="30" as="geometry" />
        </mxCell>
        <mxCell id="W99N5dghaN8DPbElHies-29" value="" style="shape=image;html=1;verticalAlign=top;verticalLabelPosition=bottom;labelBackgroundColor=#ffffff;imageAspect=0;aspect=fixed;image=https://cdn4.iconfinder.com/data/icons/ionicons/512/icon-checkmark-round-128.png" parent="1" vertex="1">
          <mxGeometry x="500" y="180" width="40" height="40" as="geometry" />
        </mxCell>
        <mxCell id="W99N5dghaN8DPbElHies-30" value="" style="shape=flexArrow;endArrow=classic;html=1;rounded=0;" parent="1" edge="1">
          <mxGeometry width="50" height="50" relative="1" as="geometry">
            <mxPoint x="470" y="662.5" as="sourcePoint" />
            <mxPoint x="540" y="662.5" as="targetPoint" />
          </mxGeometry>
        </mxCell>
        <mxCell id="W99N5dghaN8DPbElHies-31" value="Outpainting module" style="text;html=1;strokeColor=none;fillColor=none;align=center;verticalAlign=middle;whiteSpace=wrap;rounded=0;" parent="1" vertex="1">
          <mxGeometry x="470" y="622.5" width="60" height="30" as="geometry" />
        </mxCell>
        <mxCell id="W99N5dghaN8DPbElHies-36" value="" style="endArrow=classic;startArrow=classic;html=1;rounded=0;" parent="1" edge="1">
          <mxGeometry width="50" height="50" relative="1" as="geometry">
            <mxPoint x="545" y="710" as="sourcePoint" />
            <mxPoint x="545" y="610" as="targetPoint" />
          </mxGeometry>
        </mxCell>
        <mxCell id="W99N5dghaN8DPbElHies-37" value="" style="rounded=0;whiteSpace=wrap;html=1;fillColor=none;" parent="1" vertex="1">
          <mxGeometry x="120" y="377" width="120" height="80" as="geometry" />
        </mxCell>
        <mxCell id="W99N5dghaN8DPbElHies-38" value="" style="rounded=0;whiteSpace=wrap;html=1;fillColor=none;fontColor=#ffffff;strokeColor=#6F0000;" parent="1" vertex="1">
          <mxGeometry x="180" y="382" width="50" height="40" as="geometry" />
        </mxCell>
        <mxCell id="W99N5dghaN8DPbElHies-39" value="" style="rounded=0;whiteSpace=wrap;html=1;fillColor=none;" parent="1" vertex="1">
          <mxGeometry x="320" y="497" width="120" height="80" as="geometry" />
        </mxCell>
        <mxCell id="W99N5dghaN8DPbElHies-40" value="" style="rounded=0;whiteSpace=wrap;html=1;fillColor=none;fontColor=#ffffff;strokeColor=#3399FF;" parent="1" vertex="1">
          <mxGeometry x="380" y="527" width="50" height="50" as="geometry" />
        </mxCell>
        <mxCell id="W99N5dghaN8DPbElHies-41" value="" style="rounded=0;whiteSpace=wrap;html=1;fillColor=none;" parent="1" vertex="1">
          <mxGeometry x="120" y="497" width="120" height="80" as="geometry" />
        </mxCell>
        <mxCell id="W99N5dghaN8DPbElHies-42" value="" style="rounded=0;whiteSpace=wrap;html=1;fillColor=none;fontColor=#ffffff;strokeColor=#6F0000;" parent="1" vertex="1">
          <mxGeometry x="180" y="537" width="50" height="40" as="geometry" />
        </mxCell>
        <mxCell id="W99N5dghaN8DPbElHies-43" value="Case 2a" style="text;html=1;strokeColor=none;fillColor=none;align=center;verticalAlign=middle;whiteSpace=wrap;rounded=0;" parent="1" vertex="1">
          <mxGeometry x="30" y="282" width="60" height="30" as="geometry" />
        </mxCell>
        <mxCell id="W99N5dghaN8DPbElHies-46" value="Case 2b" style="text;html=1;strokeColor=none;fillColor=none;align=center;verticalAlign=middle;whiteSpace=wrap;rounded=0;" parent="1" vertex="1">
          <mxGeometry x="30" y="402" width="60" height="30" as="geometry" />
        </mxCell>
        <mxCell id="W99N5dghaN8DPbElHies-47" value="Case 2c" style="text;html=1;strokeColor=none;fillColor=none;align=center;verticalAlign=middle;whiteSpace=wrap;rounded=0;" parent="1" vertex="1">
          <mxGeometry x="30" y="522" width="60" height="30" as="geometry" />
        </mxCell>
        <mxCell id="HjYwqH8ET5TT-9HMaKof-3" value="Square, nothing left to do" style="text;html=1;strokeColor=none;fillColor=none;align=center;verticalAlign=middle;whiteSpace=wrap;rounded=0;" parent="1" vertex="1">
          <mxGeometry x="475" y="277" width="60" height="30" as="geometry" />
        </mxCell>
        <mxCell id="HjYwqH8ET5TT-9HMaKof-4" value="" style="shape=image;html=1;verticalAlign=top;verticalLabelPosition=bottom;labelBackgroundColor=#ffffff;imageAspect=0;aspect=fixed;image=https://cdn4.iconfinder.com/data/icons/ionicons/512/icon-checkmark-round-128.png" parent="1" vertex="1">
          <mxGeometry x="505" y="297" width="40" height="40" as="geometry" />
        </mxCell>
        <mxCell id="HjYwqH8ET5TT-9HMaKof-5" value="Square, nothing left to do" style="text;html=1;strokeColor=none;fillColor=none;align=center;verticalAlign=middle;whiteSpace=wrap;rounded=0;" parent="1" vertex="1">
          <mxGeometry x="475" y="393" width="60" height="30" as="geometry" />
        </mxCell>
        <mxCell id="HjYwqH8ET5TT-9HMaKof-6" value="" style="shape=image;html=1;verticalAlign=top;verticalLabelPosition=bottom;labelBackgroundColor=#ffffff;imageAspect=0;aspect=fixed;image=https://cdn4.iconfinder.com/data/icons/ionicons/512/icon-checkmark-round-128.png" parent="1" vertex="1">
          <mxGeometry x="505" y="413" width="40" height="40" as="geometry" />
        </mxCell>
        <mxCell id="HjYwqH8ET5TT-9HMaKof-11" value="Square, nothing left to do" style="text;html=1;strokeColor=none;fillColor=none;align=center;verticalAlign=middle;whiteSpace=wrap;rounded=0;" parent="1" vertex="1">
          <mxGeometry x="475" y="507" width="60" height="30" as="geometry" />
        </mxCell>
        <mxCell id="HjYwqH8ET5TT-9HMaKof-12" value="" style="shape=image;html=1;verticalAlign=top;verticalLabelPosition=bottom;labelBackgroundColor=#ffffff;imageAspect=0;aspect=fixed;image=https://cdn4.iconfinder.com/data/icons/ionicons/512/icon-checkmark-round-128.png" parent="1" vertex="1">
          <mxGeometry x="505" y="527" width="40" height="40" as="geometry" />
        </mxCell>
        <mxCell id="NH3Y3tL7dJ1_qsPXuu3D-1" value="" style="rounded=0;whiteSpace=wrap;html=1;fillColor=none;fontColor=#ffffff;strokeColor=#6F0000;" vertex="1" parent="1">
          <mxGeometry x="380" y="267" width="50" height="40" as="geometry" />
        </mxCell>
        <mxCell id="NH3Y3tL7dJ1_qsPXuu3D-4" value="" style="rounded=0;whiteSpace=wrap;html=1;fillColor=none;" vertex="1" parent="1">
          <mxGeometry x="573" y="623" width="115" height="79.5" as="geometry" />
        </mxCell>
        <mxCell id="NH3Y3tL7dJ1_qsPXuu3D-5" value="" style="rounded=0;whiteSpace=wrap;html=1;fillColor=none;fontColor=#ffffff;strokeColor=#3399FF;" vertex="1" parent="1">
          <mxGeometry x="588" y="618" width="90" height="90" as="geometry" />
        </mxCell>
        <mxCell id="NH3Y3tL7dJ1_qsPXuu3D-6" value="" style="rounded=0;whiteSpace=wrap;html=1;fillColor=none;fontColor=#ffffff;strokeColor=#6F0000;" vertex="1" parent="1">
          <mxGeometry x="588" y="642.5" width="90" height="40" as="geometry" />
        </mxCell>
        <mxCell id="NH3Y3tL7dJ1_qsPXuu3D-7" value="" style="rounded=0;whiteSpace=wrap;html=1;fillColor=none;" vertex="1" parent="1">
          <mxGeometry x="110" y="682.5" width="113" height="78" as="geometry" />
        </mxCell>
        <mxCell id="NH3Y3tL7dJ1_qsPXuu3D-9" value="" style="rounded=0;whiteSpace=wrap;html=1;fillColor=none;fontColor=#ffffff;strokeColor=#6F0000;" vertex="1" parent="1">
          <mxGeometry x="133" y="636.5" width="77" height="40" as="geometry" />
        </mxCell>
        <mxCell id="NH3Y3tL7dJ1_qsPXuu3D-10" value="" style="rounded=0;whiteSpace=wrap;html=1;fillColor=none;" vertex="1" parent="1">
          <mxGeometry x="313" y="617.5" width="115" height="79.5" as="geometry" />
        </mxCell>
        <mxCell id="NH3Y3tL7dJ1_qsPXuu3D-11" value="" style="rounded=0;whiteSpace=wrap;html=1;fillColor=none;fontColor=#ffffff;strokeColor=#3399FF;" vertex="1" parent="1">
          <mxGeometry x="328" y="618" width="90" height="79" as="geometry" />
        </mxCell>
        <mxCell id="NH3Y3tL7dJ1_qsPXuu3D-12" value="" style="rounded=0;whiteSpace=wrap;html=1;fillColor=none;fontColor=#ffffff;strokeColor=#6F0000;" vertex="1" parent="1">
          <mxGeometry x="328" y="637" width="90" height="40" as="geometry" />
        </mxCell>
      </root>
    </mxGraphModel>
  </diagram>
</mxfile>
